<svg width="89" height="33" viewBox="0 0 89 33" fill="none" xmlns="http://www.w3.org/2000/svg">
<path d="M12.8909 27.76C12.6509 28.72 12.5843 29.44 12.6909 29.92C12.8243 30.4 13.1309 30.72 13.6109 30.88C14.1176 31.04 14.8243 31.1467 15.7309 31.2L15.5309 32C15.0243 31.9733 14.3843 31.96 13.6109 31.96C12.8643 31.9333 12.0509 31.92 11.1709 31.92C10.2909 31.8933 9.45094 31.88 8.65094 31.88C7.37094 31.88 6.14427 31.8933 4.97094 31.92C3.82427 31.92 2.90427 31.9467 2.21094 32L2.41094 31.2C3.3176 31.1467 4.02427 31.04 4.53094 30.88C5.0376 30.72 5.4376 30.4 5.73094 29.92C6.02427 29.44 6.29094 28.72 6.53094 27.76L9.29094 16.8L11.8909 19.32L14.6509 18.56L16.0109 15.36L12.8909 27.76ZM25.7709 3.88C25.3443 3.88 24.9443 3.96 24.5709 4.12C24.1976 4.25333 23.7976 4.48 23.3709 4.8C22.6243 5.33333 21.7176 6.30667 20.6509 7.72C19.5843 9.10667 18.5043 10.9333 17.4109 13.2C16.3176 15.44 15.3043 18.1067 14.3709 21.2L8.93094 21.4C8.82427 20.1467 8.6776 18.8267 8.49094 17.44C8.30427 16.0533 8.0776 14.6933 7.81094 13.36C7.54427 12 7.22427 10.7733 6.85094 9.68C6.50427 8.56 6.10427 7.68 5.65094 7.04C5.1976 6.4 4.6776 6.08 4.09094 6.08C3.61094 6.08 3.22427 6.26667 2.93094 6.64C2.6376 6.98667 2.41094 7.42667 2.25094 7.96L1.41094 10.48C1.41094 10.48 1.26427 10.48 0.970938 10.48C0.677604 10.48 0.530938 10.48 0.530938 10.48L1.53094 7.4C2.06427 5.82667 2.81094 4.72 3.77094 4.08C4.7576 3.44 5.89094 3.12 7.17094 3.12C8.98427 3.12 10.3843 3.68 11.3709 4.8C12.3576 5.92 13.0909 7.54667 13.5709 9.68C14.0509 11.8133 14.4643 14.3867 14.8109 17.4C15.7176 14.84 16.7309 12.5733 17.8509 10.6C18.9709 8.6 20.1443 6.93333 21.3709 5.6C21.9843 4.93333 22.6909 4.36 23.4909 3.88C24.2909 3.37333 25.1576 3.12 26.0909 3.12C27.3176 3.12 28.2509 3.46666 28.8909 4.16C29.5309 4.85333 29.8376 5.68 29.8109 6.64C29.7843 7.62667 29.4376 8.46667 28.7709 9.16C28.1043 9.82667 27.2376 10.16 26.1709 10.16C25.2909 10.16 24.6109 9.93333 24.1309 9.48C23.6509 9.02667 23.4109 8.44 23.4109 7.72C23.4376 6.81333 23.7309 6.04 24.2909 5.4C24.8776 4.73333 25.5976 4.28 26.4509 4.04C26.3709 3.98666 26.2776 3.94667 26.1709 3.92C26.0643 3.89333 25.9309 3.88 25.7709 3.88ZM28.1953 30.4C28.622 30.4 29.0886 30.1733 29.5953 29.72C30.102 29.2667 30.622 28.6133 31.1553 27.76C31.6886 26.88 32.2086 25.8133 32.7153 24.56C33.222 23.3067 33.6886 21.8533 34.1153 20.2L33.2353 24.56C32.5686 26.5333 31.8353 28.1067 31.0353 29.28C30.2353 30.4533 29.382 31.2933 28.4753 31.8C27.5686 32.3067 26.622 32.56 25.6353 32.56C24.142 32.56 23.022 32.12 22.2753 31.24C21.5286 30.36 21.1553 29.16 21.1553 27.64C21.1553 26.2 21.3953 24.6933 21.8753 23.12C22.382 21.5467 23.0486 20.0267 23.8753 18.56C24.7286 17.0933 25.6753 15.7733 26.7153 14.6C27.782 13.4267 28.902 12.4933 30.0753 11.8C31.2753 11.1067 32.4486 10.76 33.5953 10.76C34.4753 10.76 35.1553 11.1067 35.6353 11.8C36.1153 12.4933 36.262 13.5733 36.0753 15.04L35.6353 15.28C35.7686 14.32 35.7153 13.5733 35.4753 13.04C35.262 12.5067 34.8886 12.24 34.3553 12.24C33.822 12.24 33.222 12.5467 32.5553 13.16C31.9153 13.7733 31.2753 14.6133 30.6353 15.68C29.9953 16.7467 29.3953 17.96 28.8353 19.32C28.302 20.6533 27.8753 22.0667 27.5553 23.56C27.2353 25.0267 27.0753 26.48 27.0753 27.92C27.0753 28.8267 27.1686 29.4667 27.3553 29.84C27.542 30.2133 27.822 30.4 28.1953 30.4ZM36.6753 11.36C37.822 11.3333 38.862 11.28 39.7953 11.2C40.7286 11.0933 41.622 10.9467 42.4753 10.76L37.2353 28.6C37.1553 28.9467 37.0886 29.28 37.0353 29.6C37.0086 29.8933 37.0486 30.1333 37.1553 30.32C37.2886 30.5067 37.502 30.6 37.7953 30.6C38.142 30.6 38.5286 30.4 38.9553 30C39.382 29.5733 39.822 28.72 40.2753 27.44L40.9953 25.52H41.7553L40.7553 28.44C40.382 29.5333 39.902 30.3733 39.3153 30.96C38.7286 31.5467 38.102 31.96 37.4353 32.2C36.7686 32.44 36.1153 32.56 35.4753 32.56C34.0886 32.56 33.102 32.1467 32.5153 31.32C32.1153 30.7333 31.9286 30.0133 31.9553 29.16C32.0086 28.28 32.1953 27.28 32.5153 26.16L36.6753 11.36ZM49.18 28.6C48.9933 29.2933 48.9667 29.8 49.1 30.12C49.26 30.44 49.5133 30.6 49.86 30.6C50.1533 30.6 50.5133 30.4133 50.94 30.04C51.3667 29.64 51.8067 28.7733 52.26 27.44L52.98 25.52H53.74L52.74 28.44C52.3667 29.5333 51.8867 30.3733 51.3 30.96C50.7133 31.5467 50.0867 31.96 49.42 32.2C48.7533 32.44 48.0867 32.56 47.42 32.56C46.54 32.56 45.8333 32.4 45.3 32.08C44.7667 31.7867 44.3667 31.36 44.1 30.8C43.86 30.2133 43.7533 29.5333 43.78 28.76C43.8333 27.9867 43.9933 27.1333 44.26 26.2L50.54 5.32C50.8067 4.41333 50.78 3.74667 50.46 3.32C50.14 2.89333 49.3267 2.68 48.02 2.68L48.3 1.84C50.22 1.81333 51.9 1.66666 53.34 1.4C54.8067 1.10667 56.22 0.706666 57.58 0.199999L49.18 28.6ZM61.1722 28.6C60.9855 29.2933 60.9589 29.8 61.0922 30.12C61.2522 30.44 61.5055 30.6 61.8522 30.6C62.1455 30.6 62.5055 30.4133 62.9322 30.04C63.3589 29.64 63.7989 28.7733 64.2522 27.44L64.9722 25.52H65.7322L64.7322 28.44C64.3589 29.5333 63.8789 30.3733 63.2922 30.96C62.7055 31.5467 62.0789 31.96 61.4122 32.2C60.7455 32.44 60.0789 32.56 59.4122 32.56C58.5322 32.56 57.8255 32.4 57.2922 32.08C56.7589 31.7867 56.3589 31.36 56.0922 30.8C55.8522 30.2133 55.7455 29.5333 55.7722 28.76C55.8255 27.9867 55.9855 27.1333 56.2522 26.2L62.5322 5.32C62.7989 4.41333 62.7722 3.74667 62.4522 3.32C62.1322 2.89333 61.3189 2.68 60.0122 2.68L60.2922 1.84C62.2122 1.81333 63.8922 1.66666 65.3322 1.4C66.7989 1.10667 68.2122 0.706666 69.5722 0.199999L61.1722 28.6ZM74.4844 30.4C74.911 30.4 75.3777 30.1733 75.8844 29.72C76.391 29.2667 76.911 28.6133 77.4444 27.76C77.9777 26.88 78.4977 25.8133 79.0044 24.56C79.511 23.3067 79.9777 21.8533 80.4044 20.2L79.5244 24.56C78.8577 26.5333 78.1244 28.1067 77.3244 29.28C76.5244 30.4533 75.671 31.2933 74.7644 31.8C73.8577 32.3067 72.911 32.56 71.9244 32.56C70.431 32.56 69.311 32.12 68.5644 31.24C67.8177 30.36 67.4444 29.16 67.4444 27.64C67.4444 26.2 67.6844 24.6933 68.1644 23.12C68.671 21.5467 69.3377 20.0267 70.1644 18.56C71.0177 17.0933 71.9644 15.7733 73.0044 14.6C74.071 13.4267 75.191 12.4933 76.3644 11.8C77.5644 11.1067 78.7377 10.76 79.8844 10.76C80.7644 10.76 81.4444 11.1067 81.9244 11.8C82.4044 12.4933 82.551 13.5733 82.3644 15.04L81.9244 15.28C82.0577 14.32 82.0044 13.5733 81.7644 13.04C81.551 12.5067 81.1777 12.24 80.6444 12.24C80.111 12.24 79.511 12.5467 78.8444 13.16C78.2044 13.7733 77.5644 14.6133 76.9244 15.68C76.2844 16.7467 75.6844 17.96 75.1244 19.32C74.591 20.6533 74.1644 22.0667 73.8444 23.56C73.5244 25.0267 73.3644 26.48 73.3644 27.92C73.3644 28.8267 73.4577 29.4667 73.6444 29.84C73.831 30.2133 74.111 30.4 74.4844 30.4ZM82.9644 11.36C84.111 11.3333 85.151 11.28 86.0844 11.2C87.0177 11.0933 87.911 10.9467 88.7644 10.76L83.5244 28.6C83.4444 28.9467 83.3777 29.28 83.3244 29.6C83.2977 29.8933 83.3377 30.1333 83.4444 30.32C83.5777 30.5067 83.791 30.6 84.0844 30.6C84.431 30.6 84.8177 30.4 85.2444 30C85.671 29.5733 86.111 28.72 86.5644 27.44L87.2844 25.52H88.0444L87.0444 28.44C86.671 29.5333 86.191 30.3733 85.6044 30.96C85.0177 31.5467 84.391 31.96 83.7244 32.2C83.0577 32.44 82.4044 32.56 81.7644 32.56C80.3777 32.56 79.391 32.1467 78.8044 31.32C78.4044 30.7333 78.2177 30.0133 78.2444 29.16C78.2977 28.28 78.4844 27.28 78.8044 26.16L82.9644 11.36Z" fill="white"/>
</svg>
